<svg width="171" height="171" viewBox="0 0 171 171" fill="none" xmlns="http://www.w3.org/2000/svg">
<mask id="mask0_37_2976" style="mask-type:luminance" maskUnits="userSpaceOnUse" x="13" y="13" width="145" height="145">
<path d="M85.5 156.75C124.85 156.75 156.75 124.85 156.75 85.5C156.75 46.1497 124.85 14.25 85.5 14.25C46.1497 14.25 14.25 46.1497 14.25 85.5C14.25 124.85 46.1497 156.75 85.5 156.75Z" fill="#555555" stroke="white" stroke-width="2"/>
<path d="M71.25 85.5C71.25 62.8283 80.6123 54.6986 85.5 53.4375C89.8463 54.0681 99.75 61.3177 99.75 85.5C99.75 109.682 89.8463 117.562 85.5 117.562C80.6123 116.932 71.25 108.172 71.25 85.5Z" fill="#555555" stroke="white" stroke-width="2"/>
<path d="M71.2498 81.9376C65.7137 76.4585 48.514 77.8051 42.7498 78.3751C41.022 84.6522 44.0038 97.9404 50.9187 104.787C59.5648 113.348 66.4797 117.563 85.4998 117.563C90.8436 117.563 107.285 115.977 116.237 106.412C125.186 96.8574 125.756 84.0644 124.687 78.3751C119.358 77.8051 104.866 76.4763 99.7498 81.9376" stroke="white" stroke-width="2"/>
</mask>
<g mask="url(#mask0_37_2976)">
<path d="M0 0H171V171H0V0Z" fill="#532C86"/>
</g>
</svg>
